<?xml version="1.0" standalone="no"?>
<!DOCTYPE svg PUBLIC "-//W3C//DTD SVG 20010904//EN"
 "http://www.w3.org/TR/2001/REC-SVG-20010904/DTD/svg10.dtd">
<svg version="1.0" xmlns="http://www.w3.org/2000/svg"
 width="260.000000pt" height="260.000000pt" viewBox="0 0 260.000000 260.000000"
 preserveAspectRatio="xMidYMid meet">
<metadata>
Created by potrace 1.11, written by Peter Selinger 2001-2013
</metadata>
<g transform="translate(0.000000,260.000000) scale(0.100000,-0.100000)"
fill="#000000" stroke="none">
<path d="M365 2092 c-30 -6 -80 -47 -103 -84 -27 -43 -59 -142 -68 -204 -3
-27 -8 -51 -9 -54 -2 -3 -6 -33 -10 -65 -8 -69 -11 -93 -21 -155 -4 -25 -8
-56 -9 -70 -7 -59 -30 -105 -62 -121 -67 -34 -76 -51 -44 -90 l19 -23 63 22
c67 23 104 26 183 16 44 -6 47 -8 42 -33 -3 -14 -8 -44 -12 -66 -3 -22 -7 -51
-9 -65 -2 -14 -7 -50 -10 -80 -10 -93 -25 -173 -41 -217 -12 -33 -23 -44 -53
-57 -55 -21 -61 -44 -24 -88 14 -15 19 -15 76 6 38 14 81 22 112 21 53 -2 135
-14 147 -21 4 -2 33 -5 66 -5 71 -1 101 13 165 77 30 31 47 43 47 32 0 -9 13
-30 29 -47 22 -24 38 -31 66 -31 97 0 178 78 322 307 9 15 10 10 7 -25 -9 -78
-11 -256 -3 -295 16 -90 55 -70 57 29 1 62 8 135 17 194 2 14 6 48 10 75 8 65
40 214 63 290 10 33 17 66 16 73 -1 6 -2 17 -3 22 -1 11 -50 6 -61 -7 -4 -4
-13 -26 -20 -48 -21 -68 -162 -328 -225 -414 -33 -47 -108 -111 -127 -111 -49
0 -53 12 -53 132 1 135 17 285 33 299 4 3 27 11 52 18 115 33 275 190 234 231
-12 12 -25 2 -54 -40 -46 -69 -119 -120 -188 -133 -28 -6 -33 -4 -28 11 18 59
17 71 -1 80 -28 14 -56 6 -79 -24 l-22 -27 -16 25 c-23 36 -36 83 -42 155 l-5
62 38 10 c21 6 83 20 138 32 174 36 195 63 50 65 -49 1 -116 -2 -147 -5 -32
-4 -58 -4 -58 1 0 4 13 44 30 89 67 184 151 275 229 248 21 -7 36 -23 48 -50
20 -45 46 -49 51 -7 5 40 -25 94 -59 108 -76 32 -169 1 -249 -81 -55 -58 -129
-192 -156 -286 -14 -47 -20 -55 -45 -60 -60 -12 -72 -83 -13 -83 29 0 31 -4
38 -90 7 -85 54 -182 102 -213 37 -24 37 -23 19 -147 -2 -14 -7 -76 -10 -139
l-5 -114 -46 -54 c-78 -91 -119 -100 -251 -58 -43 14 -88 25 -100 25 -13 0
-23 1 -23 3 0 2 4 28 10 58 13 72 18 105 26 164 3 28 14 95 23 149 l16 99 47
12 c26 6 62 24 82 38 19 15 44 27 55 27 16 0 21 6 21 29 0 16 7 41 14 57 17
32 12 48 -14 41 -11 -3 -23 6 -35 25 -50 86 -158 51 -220 -72 -14 -27 -25 -56
-25 -65 0 -8 -1 -15 -2 -15 -2 0 -32 9 -66 20 -35 11 -68 18 -73 14 -11 -7
-11 19 1 71 5 22 11 60 15 85 3 25 10 70 15 100 5 30 12 75 15 100 24 173 68
310 105 330 24 13 57 -16 65 -57 12 -58 21 -78 35 -78 35 0 18 113 -25 163
-25 30 -54 41 -90 34z m202 -650 c6 -4 17 -20 23 -36 9 -26 7 -31 -25 -62 -31
-29 -92 -57 -104 -48 -8 6 33 111 52 132 22 23 34 27 54 14z"/>
<path d="M2255 1466 c-84 -40 -149 -117 -210 -250 -19 -39 -39 -93 -45 -118
-11 -41 -15 -47 -46 -52 -18 -4 -38 -15 -44 -26 -10 -19 -4 -49 11 -51 5 -1
14 -3 19 -4 6 -1 16 -3 23 -4 8 -1 14 -17 15 -43 6 -118 40 -200 105 -252 36
-29 45 -31 116 -31 66 0 85 4 142 32 90 45 188 145 189 196 0 33 -29 17 -72
-40 -81 -107 -204 -152 -277 -101 -50 33 -80 98 -87 189 l-7 77 94 21 c102 23
131 29 169 37 49 10 60 16 60 34 0 18 -7 19 -102 15 -57 -3 -125 -7 -151 -11
-46 -5 -47 -4 -43 18 9 49 67 185 101 236 41 60 86 92 131 92 29 0 64 -25 64
-46 0 -19 31 -53 44 -48 15 6 13 72 -4 104 -14 26 -67 50 -112 50 -18 0 -55
-11 -83 -24z"/>
<path d="M1527 1428 c-9 -18 -25 -71 -36 -118 -54 -227 -79 -421 -77 -600 1
-102 2 -105 24 -108 39 -6 58 21 61 86 2 64 11 143 17 154 2 3 23 -4 47 -17
70 -39 214 -95 259 -101 35 -5 46 -2 62 15 22 24 15 51 -14 51 -26 0 -23 -1
-99 27 -79 28 -191 90 -191 105 0 6 46 70 103 142 121 154 212 282 221 312 8
27 -19 40 -45 22 -10 -7 -84 -98 -165 -203 -174 -225 -164 -214 -159 -184 2
13 6 40 9 59 9 68 27 146 56 248 16 56 27 109 24 116 -5 14 -35 26 -65 26 -9
0 -24 -15 -32 -32z"/>
</g>
</svg>
